<svg width="752" height="554" viewBox="0 0 752 554" fill="none" xmlns="http://www.w3.org/2000/svg">
<g clip-path="url(#clip0_2_2)">
<path fill-rule="evenodd" clip-rule="evenodd" d="M25 0L50 13.3909V36.6094L25 50L0 36.6094V13.3909L25 0ZM25 12.6393C17.5654 12.6393 11.5385 18.1734 11.5385 25.0001C11.5385 31.8268 17.5654 37.3609 25 37.3609H25.6999C29.4558 37.3609 33.0578 35.991 35.7135 33.5523L35.9754 33.312L33.2556 30.8148L32.994 31.055C31.0595 32.8313 28.4357 33.8292 25.6999 33.8292H25C19.6896 33.8292 15.3846 29.8763 15.3846 25.0001C15.3846 20.1239 19.6896 16.171 25 16.171H25.6999C28.4357 16.171 31.0595 17.1689 32.994 18.9452L33.2556 19.1854L35.9754 16.6882L35.7135 16.4479C33.0578 14.0093 29.4558 12.6393 25.6999 12.6393H25Z" fill="#107AF2"/>
<path d="M52.5422 281.49C62.4678 289.806 74.5708 295.495 86.4508 300.337C96.1747 304.304 108.639 310.781 121.337 316.824C109.924 320.411 98.6601 323.344 89.6054 324.878C88.4158 325.071 94.5071 331.339 95.6543 330.985C106.169 327.789 116.844 323.912 127.359 319.628C138.851 324.899 150.2 329.419 159.542 330.995C160.726 331.194 164.38 324.878 163.201 324.679C154.348 323.183 144.061 320.524 133.355 317.135C150.997 309.655 167.97 301.195 182.654 293.13C198.591 284.364 210.561 271.919 218.421 255.378C225.713 240.059 230.853 223.121 231.618 206.108C232.659 182.543 224.82 159.433 212.664 139.573C209.106 133.761 205.123 127.96 200.715 122.571C201.108 121.075 201.151 119.622 200.901 118.255C200.604 116.63 199.972 115.064 199.01 113.67C197.168 110.818 194.173 108.523 191.103 106.802C188.017 105.102 184.81 104.03 182.415 103.445C181.214 103.151 180.216 102.984 179.526 102.882L178.474 102.791L178.926 103.746C179.244 104.368 179.69 105.247 180.264 106.325C181.406 108.453 182.962 111.258 184.799 113.987C185.702 115.37 186.743 116.678 187.805 117.922C188.336 118.539 188.91 119.123 189.504 119.66C190.078 120.212 190.683 120.726 191.331 121.177C192.616 122.056 193.971 122.78 195.5 123.177C196.647 123.461 197.863 123.59 199.17 123.509C207.651 133.627 214.581 145.38 219.866 157.171C226.584 172.195 230.168 188.564 229.781 205.062C229.377 223.046 223.429 241.303 215.442 257.276C209.223 269.704 200.168 279.844 188.591 287.409C178.24 294.165 166.876 299.232 155.585 304.165C147.131 307.864 137.088 311.655 126.907 315.028C105.102 307.677 82.3084 297.725 66.5146 288.723C58.2565 284.026 50.7897 278.256 44.6028 270.975C38.4265 263.699 33.9708 255.061 30.3967 246.241C23.6149 229.507 19.3133 212.188 20.3648 194.011C21.5969 172.811 29.8444 152.543 41.3367 134.956C44.2841 130.458 47.4864 125.965 50.9543 121.734C52.2077 121.793 53.3813 121.659 54.5125 121.386C56.026 121 57.3749 120.276 58.6813 119.386C59.3027 118.935 59.9188 118.426 60.4923 117.874C61.0924 117.343 61.6606 116.758 62.1917 116.142C63.2698 114.892 64.2894 113.59 65.2029 112.201C67.0404 109.472 68.5911 106.662 69.7276 104.533L71.4217 101.241C71.4801 101.086 71.5119 101 71.5119 101L70.4764 101.097C69.7807 101.193 68.7822 101.37 67.5873 101.66C65.1923 102.244 61.9846 103.316 58.8938 105.016C55.8295 106.737 52.8396 109.027 50.9862 111.89C50.0302 113.289 49.3877 114.85 49.1115 116.458C48.846 117.809 48.8938 119.235 49.2708 120.705C41.1508 130.436 34.4434 141.637 29.2443 152.859C22.8237 166.736 18.9469 181.738 18.3574 197.062C17.6936 214.665 22.4413 231.533 28.9894 247.678C34.2523 260.664 41.7774 272.471 52.5422 281.49ZM180.195 313.468C184.178 312.776 187.853 311.484 190.498 310.336C193.132 309.194 194.778 308.24 194.778 308.24C194.778 308.24 193.1 307.559 190.514 306.69C187.927 305.8 184.475 304.696 180.827 303.795C177.184 302.91 173.392 302.245 169.908 302.406C168.15 302.481 166.493 302.787 164.879 303.366C163.27 303.945 161.761 304.84 160.115 306.09C161.172 309.768 164.369 312.095 168.118 313.162C171.889 314.261 176.222 314.175 180.195 313.468ZM89.8869 304.31C88.2405 303.05 86.727 302.16 85.1179 301.575C83.4981 301.007 81.8518 300.696 80.0939 300.621C76.6048 300.465 72.8024 301.119 69.1699 302.009C65.5268 302.916 62.0695 304.009 59.4779 304.905C56.9022 305.773 55.224 306.444 55.224 306.444C55.224 306.444 56.8704 307.409 59.5098 308.551C62.1598 309.688 65.8188 310.985 69.8125 311.682C73.7742 312.385 78.1131 312.47 81.8783 311.377C85.6277 310.304 88.8247 307.983 89.8869 304.31ZM160.615 300.272C162.213 299.967 163.705 299.195 165.065 298.187C167.757 296.133 169.818 293.002 171.241 289.795C172.665 286.584 173.435 283.281 173.854 280.82C174.056 279.586 174.167 278.557 174.242 277.838C174.306 277.125 174.327 276.707 174.327 276.707C174.327 276.707 173.063 277.388 171.22 278.557C169.367 279.731 166.918 281.372 164.513 283.34C162.128 285.313 159.797 287.602 158.161 290.251C156.536 292.911 155.5 295.951 155.601 299.795C157.258 300.508 158.99 300.594 160.615 300.272ZM78.7663 287.999C80.1789 291.211 82.2395 294.353 84.9426 296.401C86.2862 297.409 87.7891 298.176 89.4036 298.492C91.0127 298.808 92.7334 298.723 94.4168 298.01C94.5018 294.165 93.4609 291.125 91.8306 288.46C90.2002 285.817 87.8794 283.522 85.4843 281.554C83.0892 279.592 80.6303 277.946 78.7822 276.777C76.9341 275.603 75.6702 274.916 75.6702 274.916C75.6702 274.916 75.6861 275.34 75.7551 276.058C75.8242 276.777 75.9463 277.806 76.1428 279.039C76.557 281.495 77.3377 284.793 78.7663 287.999ZM207.035 286.23C203.259 286.358 199.414 286.621 196.138 287.64C192.845 288.669 190.094 290.439 188.299 293.693C190.546 296.771 193.785 298.197 197.423 298.363C201.071 298.546 205.113 297.473 208.804 295.779C212.505 294.09 215.851 291.79 218.214 289.811C219.404 288.841 220.349 287.945 221.002 287.329C221.65 286.685 221.995 286.305 221.995 286.305C221.995 286.305 220.19 286.273 217.322 286.219C214.518 286.203 210.79 286.117 207.035 286.23ZM52.574 296.578C56.2171 296.401 59.446 294.991 61.7137 291.913C59.9081 288.648 57.1518 286.884 53.8645 285.854C50.5772 284.836 46.7429 284.562 42.9776 284.444C39.2124 284.332 35.479 284.417 32.6802 284.428C29.8018 284.487 28.0069 284.509 28.0069 284.509C28.0069 284.509 28.3467 284.905 28.9999 285.543C29.6531 286.149 30.5985 287.05 31.7721 288.026C34.146 289.999 37.497 292.31 41.1932 293.994C44.9001 295.683 48.9256 296.755 52.574 296.578ZM181.947 288.042C185.521 288.235 188.426 286.492 190.498 283.838C192.547 281.179 193.796 277.651 194.284 274.209C194.789 270.75 194.629 267.447 194.226 265.04C194.045 263.839 193.833 262.863 193.652 262.177C193.482 261.496 193.349 261.115 193.349 261.115L191.156 263.544C189.823 265.061 188.017 267.163 186.228 269.63C184.465 272.107 182.712 274.938 181.708 278.031C180.737 281.141 180.482 284.509 181.947 288.042ZM59.5099 282.053C61.5758 284.702 64.4701 286.444 68.0654 286.257C69.5153 282.723 69.2657 279.345 68.2779 276.246C67.2901 273.158 65.5376 270.321 63.7691 267.849C61.9847 265.378 60.1791 263.27 58.8461 261.758L56.6422 259.335C56.6422 259.335 56.5147 259.71 56.3342 260.391C56.1589 261.077 55.9571 262.053 55.7712 263.254C55.3835 265.662 55.2083 268.965 55.7181 272.423C56.2173 275.86 57.4441 279.393 59.5099 282.053ZM231.368 269.174L233.418 266.504C233.955 265.758 234.459 265.013 234.921 264.289C235.867 262.836 236.685 261.442 237.364 260.246C238.017 259.04 238.533 258.032 238.878 257.313C239.218 256.584 239.372 256.15 239.372 256.15C239.372 256.15 237.699 256.638 235.107 257.458C232.547 258.279 229.175 259.485 225.899 261.04C225.065 261.431 224.258 261.839 223.45 262.289C222.59 262.783 221.735 263.287 220.928 263.791C220.11 264.295 219.303 264.782 218.549 265.313C217.784 265.828 217.03 266.332 216.355 266.895C213.594 269.072 211.544 271.571 210.699 275.254C213.732 277.554 217.29 277.946 220.96 276.755C224.613 275.592 228.352 272.814 231.368 269.174ZM14.8789 255.662C12.3032 254.847 10.6303 254.364 10.6303 254.364C10.6303 254.364 10.7843 254.793 11.1136 255.523C11.4588 256.236 11.9845 257.254 12.6484 258.456C13.3122 259.651 14.1247 261.04 15.0647 262.498C15.5427 263.228 16.0472 263.973 16.5836 264.723L17.5289 266C17.9006 266.466 18.2671 266.933 18.6282 267.394C21.65 271.024 25.3781 273.801 29.0424 274.965C32.7121 276.155 36.2703 275.774 39.3133 273.463C38.4583 269.79 36.4083 267.286 33.6415 265.104C32.9723 264.547 32.2182 264.048 31.4641 263.522C30.7046 263.002 29.8921 262.509 29.0796 262.016C28.2564 261.496 27.4174 260.997 26.5517 260.504C25.7392 260.053 24.9373 259.651 24.1141 259.26C20.8268 257.694 17.4599 256.493 14.8789 255.662ZM209.393 253.807C208.437 250.386 207.056 247.308 205.914 245.099C205.341 243.989 204.836 243.11 204.427 242.488C204.018 241.866 203.785 241.518 203.785 241.518L202.415 244.997C202.022 246.064 201.591 247.324 201.209 248.729C200.832 250.091 200.418 251.839 200.306 252.874C199.982 255.308 199.595 258.22 199.759 261.287C199.961 264.353 200.715 267.608 203.11 270.568C206.567 269.758 208.825 267.158 209.807 263.973C210.035 263.174 210.232 262.354 210.317 261.506C210.391 260.654 210.423 259.807 210.375 258.949C210.296 258.091 210.179 257.244 210.009 256.423C209.834 255.539 209.621 254.659 209.393 253.807ZM40.1894 262.193C41.1666 265.367 43.4342 267.978 46.8808 268.782C49.2866 265.812 50.0407 262.568 50.2372 259.501C50.4178 256.434 50.0248 253.528 49.6955 251.088C49.5787 250.054 49.1697 248.311 48.7927 246.944C48.405 245.539 47.9748 244.274 47.5819 243.217C47.1942 242.15 46.8277 241.287 46.5728 240.686C46.3551 240.075 46.2276 239.732 46.2276 239.732C46.2276 239.732 45.9674 240.075 45.5744 240.697C45.1549 241.325 44.6716 242.209 44.0821 243.314C42.9403 245.517 41.5649 248.606 40.6089 252.021C40.3646 252.879 40.1628 253.753 39.9876 254.638C39.823 255.464 39.7008 256.311 39.6158 257.169C39.5786 258.021 39.6105 258.868 39.6849 259.726C39.7698 260.573 39.9663 261.388 40.1894 262.193ZM247.672 227.1C247.874 226.306 247.943 225.845 247.943 225.845C247.943 225.845 246.413 226.665 243.986 227.984C241.612 229.309 238.5 231.142 235.558 233.282C232.505 235.384 229.494 237.764 227.544 240.499C227.067 241.19 226.583 241.877 226.174 242.595C225.781 243.319 225.441 244.059 225.213 244.837C224.73 246.386 224.597 248.064 224.91 249.898C228.532 250.965 231.883 250.145 234.894 248.198C235.649 247.716 236.366 247.158 237.083 246.552C237.778 245.941 238.479 245.292 239.079 244.558C240.301 243.11 241.427 241.496 242.43 239.85C244.517 236.585 245.781 233.008 246.684 230.344C247.125 229.008 247.46 227.882 247.672 227.1ZM10.9272 242.772C11.522 243.512 12.2124 244.156 12.9294 244.767C13.6304 245.378 14.3632 245.925 15.1174 246.418C18.1179 248.365 21.4583 249.185 25.0961 248.113C25.3988 246.279 25.2607 244.601 24.7828 243.046C24.5491 242.279 24.2198 241.528 23.8163 240.81C23.4286 240.086 22.9241 239.41 22.4567 238.713C20.5024 235.973 17.4859 233.604 14.4535 231.491C11.5008 229.357 8.39405 227.523 6.01485 226.194C3.58786 224.88 2.0531 224.059 2.0531 224.059C2.0531 224.059 2.12744 224.526 2.32923 225.32C2.53634 226.102 2.87092 227.218 3.31173 228.558C4.21986 231.223 5.47316 234.799 7.57086 238.059C8.57991 239.705 9.70576 241.325 10.9272 242.772ZM216.227 246.869C217.677 245.85 218.718 244.558 219.424 243.115C219.785 242.402 220.04 241.641 220.242 240.863C220.428 240.075 220.587 239.276 220.571 238.429C220.593 235.062 219.632 231.523 218.16 228.376C216.578 225.212 214.655 222.488 213.126 220.58C212.345 219.62 211.692 218.869 211.166 218.349C210.662 217.829 210.359 217.545 210.359 217.545C210.359 217.545 210.285 217.893 210.194 218.51C210.056 219.127 209.855 220.006 209.674 221.089C209.276 223.239 209.095 226.188 208.888 229.33C208.824 230.907 208.888 232.547 209.1 234.188L209.462 236.622C209.6 237.432 209.796 238.22 210.056 238.998C211.055 242.091 212.929 244.96 216.227 246.869ZM30.5712 241.335C31.2775 242.778 32.3184 244.054 33.7576 245.078C37.0555 243.169 38.9461 240.311 39.9445 237.212C40.2048 236.435 40.3906 235.641 40.534 234.831L40.9058 232.402C41.1129 230.762 41.166 229.121 41.1129 227.545C40.9058 224.408 40.7199 221.448 40.3216 219.293C40.1464 218.22 39.9445 217.336 39.8171 216.725C39.7055 216.103 39.6418 215.765 39.6418 215.765C39.6418 215.765 39.3391 216.044 38.8346 216.564C38.3035 217.084 37.645 217.829 36.8856 218.783C35.3349 220.698 33.4071 223.427 31.851 226.596C30.3641 229.732 29.4134 233.271 29.4294 236.638C29.4241 237.491 29.5622 238.295 29.7533 239.073C29.9499 239.861 30.226 240.617 30.5712 241.335ZM239.583 203.963C238.967 204.644 238.362 205.352 237.788 206.071C237.215 206.778 236.641 207.508 236.062 208.231C234.952 209.701 233.991 211.202 233.29 212.741C232.934 213.502 232.674 214.29 232.44 215.068C232.175 215.851 231.994 216.644 231.915 217.448C231.734 219.057 231.915 220.724 232.563 222.456C236.322 222.816 239.472 221.357 242.063 218.826C242.701 218.194 243.322 217.491 243.896 216.746C244.458 215.99 244.931 215.175 245.398 214.328C246.323 212.628 247.114 210.794 247.778 208.934C248.133 208.017 248.362 207.068 248.585 206.13C248.808 205.207 248.994 204.296 249.158 203.406C249.488 201.631 249.774 199.969 249.875 198.543C250.045 195.679 249.992 193.787 249.992 193.787C249.992 193.787 248.606 194.966 246.662 196.832C244.772 198.709 242.042 201.218 239.583 203.963ZM4.59628 212.542C5.05831 213.384 5.54688 214.204 6.09922 214.961C6.67277 215.706 7.29412 216.397 7.93668 217.036C10.5389 219.577 13.6616 221.035 17.4375 220.676C18.0748 218.934 18.266 217.266 18.0854 215.663C17.9898 214.859 17.8093 214.065 17.565 213.288C17.3154 212.499 17.0551 211.722 16.6993 210.961C16.0089 209.422 15.0371 207.915 13.9271 206.451C13.3536 205.727 12.7747 204.998 12.2118 204.28C11.6382 203.567 11.0434 202.864 10.4274 202.183C7.95794 199.433 5.22824 196.923 3.33233 195.041C1.38334 193.181 0.00785945 191.996 0.00785945 191.996C0.00785945 191.996 -0.0452631 193.894 0.12471 196.757C0.214976 198.183 0.512358 199.84 0.836325 201.62C0.995645 202.51 1.19743 203.427 1.4152 204.355C1.63293 205.277 1.8613 206.226 2.21181 207.148C2.88095 209.004 3.67223 210.843 4.59628 212.542ZM225.998 216.172C226.205 215.4 226.338 214.612 226.375 213.818C226.402 213.014 226.285 212.194 226.136 211.379C225.828 209.749 225.255 208.124 224.506 206.58C224.32 206.194 224.118 205.808 223.927 205.433C223.699 205.057 223.449 204.687 223.205 204.317C222.716 203.588 222.175 202.875 221.638 202.21C220.56 200.859 219.418 199.647 218.298 198.591C217.761 198.06 217.183 197.572 216.625 197.122C216.062 196.682 215.526 196.269 215.032 195.91C213.035 194.468 211.638 193.679 211.638 193.679C211.638 193.679 211.617 195.057 211.84 197.149C211.925 197.674 211.946 198.242 211.978 198.848C212.026 199.46 212.079 200.103 212.164 200.773C212.313 202.114 212.621 203.567 212.897 205.063C213.152 206.559 213.523 208.103 214.06 209.615C214.315 210.365 214.623 211.121 214.968 211.856C215.276 212.585 215.616 213.309 216.009 213.995C217.586 216.762 219.976 219.17 223.571 220.419C224.803 219.153 225.579 217.706 225.998 216.172ZM26.4122 218.639C30.0075 217.384 32.4133 214.977 33.9905 212.21C34.3888 211.513 34.734 210.8 35.0315 210.065C35.3766 209.331 35.6793 208.58 35.9449 207.824C36.4759 206.312 36.8477 204.773 37.0973 203.277C37.3894 201.787 37.6868 200.333 37.8302 198.988C37.9151 198.317 37.9682 197.674 38.016 197.063C38.0532 196.457 38.0745 195.883 38.1488 195.358C38.3825 193.272 38.3506 191.899 38.3506 191.899C38.3506 191.899 36.9539 192.677 34.9624 194.125C34.4738 194.478 33.9374 194.891 33.3851 195.336C32.8116 195.787 32.238 196.275 31.6963 196.805C30.5917 197.862 29.4446 199.079 28.3559 200.419C27.8195 201.095 27.2991 201.797 26.7893 202.526C26.5503 202.891 26.3113 203.272 26.0829 203.647C25.8758 204.022 25.6687 204.408 25.4882 204.795C24.7446 206.339 24.1658 207.958 23.8524 209.593C23.7144 210.408 23.6082 211.229 23.6241 212.028C23.6666 212.827 23.794 213.62 23.9958 214.381C24.4207 215.92 25.1961 217.373 26.4122 218.639ZM232.732 184.554C232.35 186.216 232.249 187.835 232.493 189.433C232.605 190.232 232.859 191.009 233.13 191.792C233.396 192.575 233.773 193.352 234.256 194.119C237.995 193.583 240.889 191.422 242.658 188.318C243.592 186.768 244.299 184.988 244.872 183.101C245.361 181.224 245.61 179.245 245.78 177.267C245.855 176.28 245.913 175.288 245.924 174.329C245.892 173.374 245.839 172.441 245.78 171.546C245.642 169.739 245.451 168.071 245.244 166.651C244.676 163.852 244.139 162.039 244.139 162.039C244.139 162.039 243.114 163.53 241.691 165.836C240.995 166.972 240.178 168.323 239.275 169.814C238.393 171.294 237.49 172.886 236.657 174.527C235.855 176.152 234.973 177.851 234.277 179.53C233.566 181.224 233.061 182.902 232.732 184.554ZM225.573 184.071C224.893 182.581 223.879 181.176 222.764 179.889C222.196 179.245 221.596 178.624 220.979 178.05C220.358 177.465 219.631 176.935 218.951 176.425C216.147 174.415 213.327 172.972 210.974 172.12C208.696 171.251 207.14 170.881 207.14 170.881C207.14 170.881 207.469 172.195 208.213 174.12C208.537 175.101 208.903 176.254 209.423 177.476C209.668 178.082 209.949 178.72 210.252 179.363C210.56 180.012 210.81 180.688 211.144 181.353C211.76 182.693 212.541 184.039 213.433 185.342C214.23 186.65 215.191 187.905 216.327 189.031C218.643 191.245 221.367 193.004 225.164 193.363C225.621 192.607 225.977 191.84 226.226 191.068C226.481 190.28 226.534 189.492 226.561 188.709C226.561 187.138 226.184 185.567 225.573 184.071ZM13.3533 172.736C12.5089 171.106 11.6008 169.514 10.7139 168.029C9.80582 166.533 8.98796 165.187 8.30288 164.045C6.88493 161.75 5.85468 160.254 5.85468 160.254C5.85468 160.254 5.31831 162.061 4.75537 164.865C4.54292 166.286 4.34646 167.954 4.219 169.76C4.14462 170.667 4.09155 171.594 4.07029 172.549C4.07029 173.508 4.13402 174.495 4.219 175.481C4.38893 177.449 4.63852 179.439 5.13774 181.315C5.69003 183.202 6.41762 184.983 7.33635 186.527C9.12074 189.637 12.0044 191.797 15.7379 192.328C16.2264 191.562 16.5875 190.789 16.8637 190.007C17.1292 189.224 17.3895 188.441 17.4957 187.653C17.7559 186.06 17.6338 184.425 17.2514 182.768C16.938 181.111 16.4335 179.439 15.7272 177.75C15.0262 176.066 14.1553 174.366 13.3533 172.736ZM33.672 187.235C34.8085 186.119 35.7644 184.865 36.5663 183.551C37.4426 182.253 38.2339 180.913 38.8552 179.562C39.1845 178.897 39.4288 178.227 39.7474 177.583C40.0501 176.935 40.3316 176.302 40.5759 175.691C41.0963 174.463 41.4468 173.315 41.7867 172.34C42.5302 170.404 42.8435 169.096 42.8435 169.096C42.8435 169.096 41.3034 169.471 39.0146 170.34C36.6672 171.187 33.8473 172.629 31.0485 174.64C30.3635 175.144 29.6412 175.68 29.0198 176.27C28.3985 176.843 27.7984 177.455 27.2301 178.098C26.1255 179.39 25.1006 180.795 24.4314 182.286C23.7995 183.782 23.449 185.347 23.449 186.924C23.449 187.706 23.518 188.495 23.757 189.272C24.0225 190.055 24.3624 190.827 24.8457 191.578C28.6322 191.224 31.3513 189.46 33.672 187.235ZM219.488 160.061C219.126 159.359 218.717 158.672 218.17 158.061C217.119 156.817 215.85 155.702 214.453 154.742C213.056 153.788 211.436 153.037 209.886 152.399C209.1 152.088 208.314 151.798 207.544 151.557C206.774 151.305 205.967 151.112 205.207 150.941C203.699 150.592 202.297 150.361 201.107 150.217C199.902 150.067 198.919 149.986 198.202 149.965C197.475 149.927 197.082 149.932 197.082 149.932C197.082 149.932 197.246 150.233 197.581 150.742C197.878 151.257 198.293 152.002 198.877 152.871C199.158 153.305 199.472 153.772 199.827 154.259L200.932 155.814C201.691 156.897 202.584 158.029 203.587 159.139C204.517 160.286 205.573 161.401 206.758 162.426L208.558 163.911C209.169 164.377 209.817 164.812 210.502 165.198C211.845 165.991 213.396 166.597 214.968 166.951C216.545 167.305 218.271 167.391 220.141 167.074C220.401 166.232 220.56 165.401 220.592 164.586C220.592 163.787 220.491 163.005 220.311 162.254C220.119 161.493 219.833 160.763 219.488 160.061ZM230.725 133.171C230.725 133.171 230.109 134.823 229.227 137.418C228.346 140.013 227.353 143.407 226.429 147.021C225.977 148.823 225.674 150.624 225.398 152.426C225.127 154.238 225.005 156.002 225.127 157.654C225.212 158.485 225.276 159.31 225.43 160.098C225.589 160.903 225.818 161.664 226.136 162.399C226.45 163.123 226.848 163.825 227.342 164.49C227.804 165.165 228.367 165.814 229.02 166.425C230.783 165.68 232.191 164.613 233.301 163.289C234.442 161.959 235.149 160.415 235.669 158.683C235.935 157.82 236.121 156.919 236.275 155.981C236.402 155.042 236.503 154.077 236.482 153.128C236.471 151.203 236.275 149.214 235.967 147.284C235.212 143.477 234.002 139.852 232.801 137.327C232.238 136.045 231.723 134.994 231.357 134.265C230.969 133.558 230.725 133.171 230.725 133.171ZM52.4293 148.957C52.748 148.442 52.9179 148.147 52.9179 148.147C52.9179 148.147 52.509 148.147 51.8027 148.174C51.0804 148.201 50.0926 148.276 48.8924 148.426C47.6975 148.576 46.3008 148.807 44.782 149.16C44.0278 149.337 43.2259 149.52 42.4559 149.772C41.6911 150.018 40.9051 150.292 40.1139 150.613C38.5578 151.246 36.9434 152.013 35.536 152.957C34.1446 153.916 32.8648 155.026 31.8186 156.275C31.2769 156.892 30.868 157.568 30.5121 158.275C30.167 158.973 29.8908 159.707 29.689 160.463C29.5031 161.224 29.4022 162.002 29.4022 162.806C29.4447 163.616 29.5987 164.447 29.8642 165.294C31.7177 165.605 33.4543 165.514 35.0368 165.165C36.6035 164.801 38.1436 164.206 39.4978 163.423C40.1829 163.031 40.8149 162.592 41.4415 162.125L43.2312 160.64C44.4208 159.616 45.4723 158.495 46.407 157.353C47.4001 156.243 48.3082 155.112 49.0677 154.029L51.1229 151.091C51.6964 150.217 52.1213 149.471 52.4293 148.957ZM22.647 162.704C23.1515 162.039 23.5446 161.342 23.8632 160.608C24.1818 159.873 24.4102 159.107 24.5695 158.313C24.7235 157.519 24.7819 156.694 24.8722 155.868C24.989 154.206 24.8722 152.447 24.5961 150.64C24.3252 148.828 24.0225 147.037 23.5552 145.23C22.647 141.622 21.6486 138.222 20.7724 135.633C19.8802 133.037 19.2694 131.381 19.2694 131.381C19.2694 131.381 19.0305 131.772 18.6428 132.485C18.2657 133.214 17.7559 134.255 17.1983 135.536C15.9874 138.072 14.7872 141.691 14.0278 145.493C13.7198 147.434 13.5127 149.412 13.5127 151.332C13.4914 152.286 13.587 153.257 13.7357 154.19C13.8791 155.133 14.065 156.034 14.3146 156.897C14.8403 158.629 15.552 160.168 16.6885 161.498C17.809 162.828 19.2216 163.889 20.9636 164.64C21.638 164.029 22.1903 163.38 22.647 162.704ZM204.713 134.791C202.121 132.839 198.728 131.681 195.361 131.182C193.693 130.909 192.015 130.812 190.459 130.796C188.908 130.796 187.496 130.855 186.28 130.973C183.831 131.225 182.27 131.563 182.27 131.563C182.27 131.563 182.493 131.826 182.907 132.271C183.327 132.716 183.97 133.316 184.692 134.072C185.435 134.818 186.375 135.643 187.384 136.533C188.367 137.434 189.525 138.34 190.735 139.23C191.93 140.136 193.253 140.989 194.633 141.724C195.988 142.496 197.421 143.134 198.956 143.557C201.962 144.447 205.249 144.587 208.749 143.043C208.834 141.3 208.484 139.713 207.788 138.319C207.039 136.962 205.982 135.783 204.713 134.791ZM59.2536 137.445C60.4698 136.555 61.6328 135.654 62.6153 134.742C63.6349 133.852 64.559 133.032 65.2918 132.287C66.03 131.531 66.6673 130.925 67.0869 130.48C67.5064 130.046 67.7294 129.783 67.7294 129.783C67.7294 129.783 66.1628 129.434 63.7199 129.188C62.4985 129.07 61.0911 129.005 59.5351 129.016C57.979 129.027 56.3009 129.129 54.6493 129.402C51.2717 129.901 47.8781 131.054 45.2865 132.995C44.0279 133.997 42.9605 135.177 42.217 136.539C41.5213 137.927 41.1655 139.514 41.2451 141.257C44.7395 142.796 48.0322 142.657 51.038 141.777C52.5728 141.343 54.0226 140.705 55.3662 139.943C56.7417 139.198 58.064 138.356 59.2536 137.445ZM217.119 141.15C220.14 138.86 221.532 135.654 221.755 132.062C221.85 130.292 221.649 128.426 221.261 126.55C220.857 124.678 220.209 122.861 219.477 121.075C218.738 119.306 217.825 117.676 216.954 116.158C216.083 114.646 215.122 113.349 214.336 112.228C213.534 111.108 212.801 110.239 212.265 109.633C211.755 109.043 211.452 108.706 211.452 108.706C211.452 108.706 211.155 110.48 210.879 113.124C210.725 114.475 210.565 116.046 210.443 117.724C210.379 118.566 210.332 119.429 210.294 120.314C210.241 121.209 210.199 122.132 210.193 123.054C210.146 126.694 210.305 130.469 211.272 133.643C211.734 135.257 212.397 136.71 213.375 137.96C214.293 139.241 215.504 140.329 217.119 141.15ZM32.8806 139.37C34.495 138.544 35.6953 137.456 36.614 136.174C37.5965 134.93 38.2657 133.466 38.717 131.852C39.6995 128.689 39.8482 124.914 39.8163 121.268C39.8004 120.341 39.7579 119.424 39.7048 118.528C39.6783 117.649 39.6146 116.78 39.5561 115.939C39.4287 114.255 39.264 112.684 39.1153 111.338C38.8445 108.684 38.5471 106.92 38.5471 106.92C38.5471 106.92 38.2444 107.263 37.7186 107.853C37.2088 108.454 36.4759 109.317 35.674 110.448C34.8615 111.569 33.9162 112.861 33.0293 114.373C32.169 115.89 31.2556 117.52 30.5227 119.29C29.8004 121.075 29.1366 122.898 28.7383 124.764C28.3347 126.635 28.1488 128.501 28.2338 130.276C28.4621 133.863 29.8641 137.075 32.8806 139.37Z" fill="#107AF2" stroke="#107AF2" stroke-width="0.00746239" stroke-miterlimit="20"/>
<path d="M64.1637 198.53C64.1637 196.49 64.6337 194.66 65.5737 193.04C66.5337 191.42 67.8237 190.16 69.4437 189.26C71.0837 188.34 72.8737 187.88 74.8137 187.88C77.0337 187.88 79.0037 188.43 80.7237 189.53C82.4637 190.61 83.7237 192.15 84.5037 194.15H80.3937C79.8537 193.05 79.1037 192.23 78.1437 191.69C77.1837 191.15 76.0737 190.88 74.8137 190.88C73.4337 190.88 72.2037 191.19 71.1237 191.81C70.0437 192.43 69.1937 193.32 68.5737 194.48C67.9737 195.64 67.6737 196.99 67.6737 198.53C67.6737 200.07 67.9737 201.42 68.5737 202.58C69.1937 203.74 70.0437 204.64 71.1237 205.28C72.2037 205.9 73.4337 206.21 74.8137 206.21C76.0737 206.21 77.1837 205.94 78.1437 205.4C79.1037 204.86 79.8537 204.04 80.3937 202.94H84.5037C83.7237 204.94 82.4637 206.48 80.7237 207.56C79.0037 208.64 77.0337 209.18 74.8137 209.18C72.8537 209.18 71.0637 208.73 69.4437 207.83C67.8237 206.91 66.5337 205.64 65.5737 204.02C64.6337 202.4 64.1637 200.57 64.1637 198.53ZM97.0568 192.2C98.3168 192.2 99.4368 192.47 100.417 193.01C101.417 193.55 102.197 194.35 102.757 195.41C103.337 196.47 103.627 197.75 103.627 199.25V209H100.237V199.76C100.237 198.28 99.8668 197.15 99.1268 196.37C98.3868 195.57 97.3768 195.17 96.0968 195.17C94.8168 195.17 93.7968 195.57 93.0368 196.37C92.2968 197.15 91.9268 198.28 91.9268 199.76V209H88.5068V186.8H91.9268V194.39C92.5068 193.69 93.2368 193.15 94.1168 192.77C95.0168 192.39 95.9968 192.2 97.0568 192.2ZM106.849 200.66C106.849 199 107.189 197.53 107.869 196.25C108.569 194.97 109.509 193.98 110.689 193.28C111.889 192.56 113.209 192.2 114.649 192.2C115.949 192.2 117.079 192.46 118.039 192.98C119.019 193.48 119.799 194.11 120.379 194.87V192.47H123.829V209H120.379V206.54C119.799 207.32 119.009 207.97 118.009 208.49C117.009 209.01 115.869 209.27 114.589 209.27C113.169 209.27 111.869 208.91 110.689 208.19C109.509 207.45 108.569 206.43 107.869 205.13C107.189 203.81 106.849 202.32 106.849 200.66ZM120.379 200.72C120.379 199.58 120.139 198.59 119.659 197.75C119.199 196.91 118.589 196.27 117.829 195.83C117.069 195.39 116.249 195.17 115.369 195.17C114.489 195.17 113.669 195.39 112.909 195.83C112.149 196.25 111.529 196.88 111.049 197.72C110.589 198.54 110.359 199.52 110.359 200.66C110.359 201.8 110.589 202.8 111.049 203.66C111.529 204.52 112.149 205.18 112.909 205.64C113.689 206.08 114.509 206.3 115.369 206.3C116.249 206.3 117.069 206.08 117.829 205.64C118.589 205.2 119.199 204.56 119.659 203.72C120.139 202.86 120.379 201.86 120.379 200.72ZM131.741 194.87C132.241 194.03 132.901 193.38 133.721 192.92C134.561 192.44 135.551 192.2 136.691 192.2V195.74H135.821C134.481 195.74 133.461 196.08 132.761 196.76C132.081 197.44 131.741 198.62 131.741 200.3V209H128.321V192.47H131.741V194.87ZM146.495 192.2C147.775 192.2 148.905 192.46 149.885 192.98C150.885 193.48 151.665 194.11 152.225 194.87V192.47H155.675V209.27C155.675 210.79 155.355 212.14 154.715 213.32C154.075 214.52 153.145 215.46 151.925 216.14C150.725 216.82 149.285 217.16 147.605 217.16C145.365 217.16 143.505 216.63 142.025 215.57C140.545 214.53 139.705 213.11 139.505 211.31H142.895C143.155 212.17 143.705 212.86 144.545 213.38C145.405 213.92 146.425 214.19 147.605 214.19C148.985 214.19 150.095 213.77 150.935 212.93C151.795 212.09 152.225 210.87 152.225 209.27V206.51C151.645 207.29 150.855 207.95 149.855 208.49C148.875 209.01 147.755 209.27 146.495 209.27C145.055 209.27 143.735 208.91 142.535 208.19C141.355 207.45 140.415 206.43 139.715 205.13C139.035 203.81 138.695 202.32 138.695 200.66C138.695 199 139.035 197.53 139.715 196.25C140.415 194.97 141.355 193.98 142.535 193.28C143.735 192.56 145.055 192.2 146.495 192.2ZM152.225 200.72C152.225 199.58 151.985 198.59 151.505 197.75C151.045 196.91 150.435 196.27 149.675 195.83C148.915 195.39 148.095 195.17 147.215 195.17C146.335 195.17 145.515 195.39 144.755 195.83C143.995 196.25 143.375 196.88 142.895 197.72C142.435 198.54 142.205 199.52 142.205 200.66C142.205 201.8 142.435 202.8 142.895 203.66C143.375 204.52 143.995 205.18 144.755 205.64C145.535 206.08 146.355 206.3 147.215 206.3C148.095 206.3 148.915 206.08 149.675 205.64C150.435 205.2 151.045 204.56 151.505 203.72C151.985 202.86 152.225 201.86 152.225 200.72ZM175.317 200.33C175.317 200.95 175.277 201.51 175.197 202.01H162.567C162.667 203.33 163.157 204.39 164.037 205.19C164.917 205.99 165.997 206.39 167.277 206.39C169.117 206.39 170.417 205.62 171.177 204.08H174.867C174.367 205.6 173.457 206.85 172.137 207.83C170.837 208.79 169.217 209.27 167.277 209.27C165.697 209.27 164.277 208.92 163.017 208.22C161.777 207.5 160.797 206.5 160.077 205.22C159.377 203.92 159.027 202.42 159.027 200.72C159.027 199.02 159.367 197.53 160.047 196.25C160.747 194.95 161.717 193.95 162.957 193.25C164.217 192.55 165.657 192.2 167.277 192.2C168.837 192.2 170.227 192.54 171.447 193.22C172.667 193.9 173.617 194.86 174.297 196.1C174.977 197.32 175.317 198.73 175.317 200.33ZM171.747 199.25C171.727 197.99 171.277 196.98 170.397 196.22C169.517 195.46 168.427 195.08 167.127 195.08C165.947 195.08 164.937 195.46 164.097 196.22C163.257 196.96 162.757 197.97 162.597 199.25H171.747ZM182.103 194.87C182.603 194.03 183.263 193.38 184.083 192.92C184.923 192.44 185.913 192.2 187.053 192.2V195.74H186.183C184.843 195.74 183.823 196.08 183.123 196.76C182.443 197.44 182.103 198.62 182.103 200.3V209H178.683V192.47H182.103V194.87ZM108.438 233.15V235.94H99.588V242.09H106.488V244.88H99.588V254H96.168V233.15H108.438ZM113.347 235.28C112.727 235.28 112.207 235.07 111.787 234.65C111.367 234.23 111.157 233.71 111.157 233.09C111.157 232.47 111.367 231.95 111.787 231.53C112.207 231.11 112.727 230.9 113.347 230.9C113.947 230.9 114.457 231.11 114.877 231.53C115.297 231.95 115.507 232.47 115.507 233.09C115.507 233.71 115.297 234.23 114.877 234.65C114.457 235.07 113.947 235.28 113.347 235.28ZM115.027 237.47V254H111.607V237.47H115.027ZM127.858 237.2C129.158 237.2 130.318 237.47 131.338 238.01C132.378 238.55 133.188 239.35 133.768 240.41C134.348 241.47 134.638 242.75 134.638 244.25V254H131.248V244.76C131.248 243.28 130.878 242.15 130.138 241.37C129.398 240.57 128.388 240.17 127.108 240.17C125.828 240.17 124.808 240.57 124.048 241.37C123.308 242.15 122.938 243.28 122.938 244.76V254H119.518V237.47H122.938V239.36C123.498 238.68 124.208 238.15 125.068 237.77C125.948 237.39 126.878 237.2 127.858 237.2ZM137.86 245.66C137.86 244 138.2 242.53 138.88 241.25C139.58 239.97 140.52 238.98 141.7 238.28C142.9 237.56 144.23 237.2 145.69 237.2C146.77 237.2 147.83 237.44 148.87 237.92C149.93 238.38 150.77 239 151.39 239.78V231.8H154.84V254H151.39V251.51C150.83 252.31 150.05 252.97 149.05 253.49C148.07 254.01 146.94 254.27 145.66 254.27C144.22 254.27 142.9 253.91 141.7 253.19C140.52 252.45 139.58 251.43 138.88 250.13C138.2 248.81 137.86 247.32 137.86 245.66ZM151.39 245.72C151.39 244.58 151.15 243.59 150.67 242.75C150.21 241.91 149.6 241.27 148.84 240.83C148.08 240.39 147.26 240.17 146.38 240.17C145.5 240.17 144.68 240.39 143.92 240.83C143.16 241.25 142.54 241.88 142.06 242.72C141.6 243.54 141.37 244.52 141.37 245.66C141.37 246.8 141.6 247.8 142.06 248.66C142.54 249.52 143.16 250.18 143.92 250.64C144.7 251.08 145.52 251.3 146.38 251.3C147.26 251.3 148.08 251.08 148.84 250.64C149.6 250.2 150.21 249.56 150.67 248.72C151.15 247.86 151.39 246.86 151.39 245.72Z" fill="#107AF2"/>
<g clip-path="url(#clip1_2_2)">
<path fill-rule="evenodd" clip-rule="evenodd" d="M73.8812 0C68.212 0.00295613 62.7287 2.02092 58.4117 5.69305C54.0948 9.36517 51.2257 14.452 50.3175 20.044C49.4094 25.636 50.5213 31.3684 53.4545 36.2164C56.3877 41.0643 60.951 44.7115 66.3283 46.5059C67.5146 46.7272 67.9614 45.9883 67.9614 45.36C67.9614 44.7317 67.9377 42.91 67.9298 40.9184C61.2864 42.3608 59.8826 38.101 59.8826 38.101C58.7991 35.3349 57.2332 34.6078 57.2332 34.6078C55.0661 33.1299 57.3953 33.1576 57.3953 33.1576C59.7956 33.3275 61.0571 35.6194 61.0571 35.6194C63.1845 39.2667 66.6446 38.2116 68.0049 37.5952C68.2185 36.0501 68.8393 34.999 69.5234 34.4023C64.2166 33.8017 58.6409 31.7548 58.6409 22.6108C58.608 20.2394 59.4886 17.9461 61.1006 16.2054C60.8554 15.6047 60.0368 13.1785 61.3339 9.88286C61.3339 9.88286 63.3388 9.24271 67.9021 12.3289C71.8163 11.2592 75.946 11.2592 79.8602 12.3289C84.4196 9.24271 86.4205 9.88286 86.4205 9.88286C87.7215 13.1706 86.903 15.5968 86.6578 16.2054C88.2748 17.9464 89.1573 20.2437 89.1214 22.6187C89.1214 31.7824 83.5338 33.8017 78.2191 34.3905C79.0733 35.1334 79.8365 36.5836 79.8365 38.8122C79.8365 42.0051 79.8088 44.5736 79.8088 45.36C79.8088 45.9962 80.2398 46.7391 81.4499 46.5059C86.8278 44.7113 91.3915 41.0634 94.3247 36.2147C97.2578 31.3659 98.3692 25.6326 97.46 20.0401C96.5507 14.4476 93.6803 9.36071 89.3619 5.68921C85.0435 2.01771 79.5589 0.00108239 73.8891 0H73.8812Z" fill="#107AF2"/>
<path d="M59.0436 34.264C58.9922 34.3826 58.8024 34.4181 58.6482 34.3351C58.494 34.2522 58.3793 34.098 58.4347 33.9755C58.49 33.853 58.6759 33.8214 58.8301 33.9044C58.9843 33.9874 59.103 34.1455 59.0436 34.264Z" fill="#107AF2"/>
<path d="M60.0125 35.3428C59.9306 35.384 59.8369 35.3955 59.7475 35.3753C59.658 35.3551 59.5784 35.3045 59.5222 35.2321C59.368 35.0662 59.3363 34.837 59.4549 34.7342C59.5736 34.6315 59.7871 34.6789 59.9414 34.8449C60.0956 35.0108 60.1312 35.24 60.0125 35.3428Z" fill="#107AF2"/>
<path d="M60.9537 36.714C60.8074 36.8167 60.5583 36.714 60.4199 36.5085C60.3816 36.4716 60.3512 36.4274 60.3304 36.3785C60.3096 36.3297 60.2989 36.2771 60.2989 36.224C60.2989 36.1709 60.3096 36.1183 60.3304 36.0694C60.3512 36.0205 60.3816 35.9763 60.4199 35.9395C60.5662 35.8407 60.8153 35.9395 60.9537 36.141C61.0921 36.3425 61.0961 36.6112 60.9537 36.714Z" fill="#107AF2"/>
<path d="M62.231 38.0417C62.1005 38.1879 61.8355 38.1484 61.618 37.9508C61.4005 37.7532 61.3491 37.4845 61.4796 37.3423C61.6101 37.2 61.8751 37.2395 62.1005 37.4331C62.3259 37.6268 62.3694 37.8994 62.231 38.0417Z" fill="#107AF2"/>
<path d="M64.0222 38.8162C63.9629 39.0019 63.694 39.0849 63.4251 39.0059C63.1562 38.9268 62.9783 38.7055 63.0297 38.5159C63.0811 38.3262 63.354 38.2393 63.6268 38.3262C63.8997 38.4131 64.0737 38.6226 64.0222 38.8162Z" fill="#107AF2"/>
<path d="M65.9758 38.9505C65.9758 39.1442 65.7543 39.3101 65.4696 39.3141C65.1849 39.318 64.9516 39.16 64.9516 38.9663C64.9516 38.7727 65.173 38.6067 65.4578 38.6028C65.7425 38.5988 65.9758 38.753 65.9758 38.9505Z" fill="#107AF2"/>
<path d="M67.7948 38.6463C67.8304 38.8399 67.6327 39.0414 67.348 39.0888C67.0633 39.1363 66.8141 39.0217 66.7785 38.832C66.743 38.6423 66.9486 38.4368 67.2254 38.3855C67.5022 38.3341 67.7592 38.4526 67.7948 38.6463Z" fill="#107AF2"/>
</g>
<path d="M110 20C115.523 20 120 15.5228 120 10C120 4.47715 115.523 0 110 0C104.477 0 100 4.47715 100 10C100 15.5228 104.477 20 110 20Z" fill="#3E6AE1"/>
<path d="M110 12.64C110.69 12.64 111.25 13.1996 111.25 13.89C111.25 14.5803 110.69 15.14 110 15.14C109.31 15.14 108.75 14.5803 108.75 13.89C108.75 13.1996 109.31 12.64 110 12.64Z" fill="white"/>
<path fill-rule="evenodd" clip-rule="evenodd" d="M109.166 11.3888H110.832V4.72253H109.166V11.3888Z" fill="white"/>
<mask id="path-15-inside-1_2_2" fill="white">
<path d="M164.25 0.659983L158 6.75373L151.75 0.659983C151.633 0.5429 151.496 0.484358 151.34 0.484358C151.184 0.484358 151.047 0.5429 150.93 0.659983C150.813 0.777066 150.754 0.913733 150.754 1.06998C150.754 1.22623 150.806 1.35644 150.911 1.46061L157.571 7.94498C157.688 8.06207 157.831 8.12061 158.001 8.12061C158.17 8.12061 158.314 8.06207 158.431 7.94498L165.091 1.47998C165.195 1.3629 165.247 1.2229 165.247 1.05998C165.247 0.897066 165.188 0.7604 165.071 0.649983C164.954 0.539566 164.818 0.484149 164.661 0.483733C164.505 0.483316 164.368 0.541858 164.251 0.659358L164.25 0.659983Z"/>
</mask>
<path d="M164.25 0.659983L158 6.75373L151.75 0.659983C151.633 0.5429 151.496 0.484358 151.34 0.484358C151.184 0.484358 151.047 0.5429 150.93 0.659983C150.813 0.777066 150.754 0.913733 150.754 1.06998C150.754 1.22623 150.806 1.35644 150.911 1.46061L157.571 7.94498C157.688 8.06207 157.831 8.12061 158.001 8.12061C158.17 8.12061 158.314 8.06207 158.431 7.94498L165.091 1.47998C165.195 1.3629 165.247 1.2229 165.247 1.05998C165.247 0.897066 165.188 0.7604 165.071 0.649983C164.954 0.539566 164.818 0.484149 164.661 0.483733C164.505 0.483316 164.368 0.541858 164.251 0.659358L164.25 0.659983Z" fill="#838587"/>
<path d="M164.25 0.659983L159.778 -8.28429L158.384 -7.58758L157.269 -6.50002L164.25 0.659983ZM158 6.75373L151.019 13.9137L158 20.7202L164.981 13.9137L158 6.75373ZM151.75 0.659983L144.679 7.73105L144.724 7.7758L144.769 7.81998L151.75 0.659983ZM150.911 1.46061L143.84 8.53168L143.887 8.57891L143.935 8.62551L150.911 1.46061ZM157.571 7.94498L164.642 0.873914L164.594 0.826677L164.547 0.780076L157.571 7.94498ZM158.431 7.94498L151.465 0.76965L151.412 0.821389L151.36 0.873914L158.431 7.94498ZM165.091 1.47998L172.056 8.65532L172.319 8.40038L172.562 8.12692L165.091 1.47998ZM164.251 0.659358L168.723 9.60363L170.183 8.87383L171.335 7.71786L164.251 0.659358ZM157.269 -6.50002L151.019 -0.406269L164.981 13.9137L171.231 7.81998L157.269 -6.50002ZM164.981 -0.406269L158.731 -6.50002L144.769 7.81998L151.019 13.9137L164.981 -0.406269ZM158.821 -6.41109C156.953 -8.27921 154.319 -9.51564 151.34 -9.51564V10.4844C150.135 10.4844 148.861 10.2511 147.622 9.72044C146.395 9.19462 145.418 8.47034 144.679 7.73105L158.821 -6.41109ZM151.34 -9.51564C148.361 -9.51564 145.727 -8.27921 143.859 -6.41109L158.001 7.73105C157.262 8.47034 156.285 9.19462 155.058 9.72044C153.819 10.2511 152.545 10.4844 151.34 10.4844V-9.51564ZM143.859 -6.41109C141.991 -4.54296 140.754 -1.90923 140.754 1.06998H160.754C160.754 2.2753 160.521 3.54888 159.99 4.7878C159.465 6.01533 158.74 6.99176 158.001 7.73105L143.859 -6.41109ZM140.754 1.06998C140.754 3.69985 141.737 6.42955 143.84 8.53168L157.982 -5.61046C158.838 -4.75414 159.576 -3.68442 160.078 -2.42908C160.576 -1.18541 160.754 0.0209342 160.754 1.06998H140.754ZM143.935 8.62551L150.595 15.1099L164.547 0.780076L157.887 -5.7043L143.935 8.62551ZM150.5 15.0161C152.542 17.0587 155.251 18.1206 158.001 18.1206V-1.87939C159.088 -1.87939 160.309 -1.68672 161.547 -1.18091C162.79 -0.673152 163.826 0.0582238 164.642 0.873914L150.5 15.0161ZM158.001 18.1206C160.751 18.1206 163.459 17.0587 165.502 15.0161L151.36 0.873914C152.175 0.0582238 153.211 -0.673152 154.454 -1.18091C155.693 -1.68672 156.913 -1.87939 158.001 -1.87939V18.1206ZM165.396 15.1203L172.056 8.65532L158.125 -5.69535L151.465 0.76965L165.396 15.1203ZM172.562 8.12692C174.364 6.10098 175.247 3.56721 175.247 1.05998H155.247C155.247 -1.12141 156.025 -3.37518 157.619 -5.16696L172.562 8.12692ZM175.247 1.05998C175.247 -1.81834 174.081 -4.59917 171.932 -6.62517L158.21 7.92514C157.354 7.11787 156.565 6.06612 156.011 4.77281C155.458 3.48222 155.247 2.20165 155.247 1.05998H175.247ZM171.932 -6.62517C170.027 -8.4214 167.469 -9.50882 164.688 -9.51623L164.635 10.4837C163.511 10.4807 162.31 10.2738 161.123 9.79272C159.942 9.31372 158.971 8.64266 158.21 7.92514L171.932 -6.62517ZM164.688 -9.51623C161.687 -9.52423 159.039 -8.2769 157.168 -6.39914L171.335 7.71786C170.595 8.46034 169.615 9.19019 168.379 9.7195C167.131 10.2539 165.848 10.4869 164.635 10.4837L164.688 -9.51623ZM159.779 -8.28491L159.778 -8.28429L168.722 9.60425L168.723 9.60363L159.779 -8.28491Z" fill="#838587" mask="url(#path-15-inside-1_2_2)"/>
</g>
<defs>
<clipPath id="clip0_2_2">
<rect width="752" height="554" fill="white"/>
</clipPath>
<clipPath id="clip1_2_2">
<rect width="47.7612" height="48" fill="white" transform="translate(50 -1)"/>
</clipPath>
</defs>
</svg>
