<svg width="200" height="200" viewBox="0 0 200 200" fill="none" xmlns="http://www.w3.org/2000/svg">
<path fill-rule="evenodd" clip-rule="evenodd" d="M100.367 166.497C105.304 164.186 158.333 138.274 158.333 91.6666C158.333 59.45 132.217 33.3333 100 33.3333C67.7834 33.3333 41.6667 59.45 41.6667 91.6666C41.6667 138.274 94.6958 164.186 99.6326 166.497C99.8906 166.618 100.109 166.618 100.367 166.497ZM100 116.667C113.807 116.667 125 105.474 125 91.6666C125 77.8595 113.807 66.6666 100 66.6666C86.1929 66.6666 75 77.8595 75 91.6666C75 105.474 86.1929 116.667 100 116.667Z" fill="#B1D1F7"/>
</svg>
