<svg width="50" height="50" viewBox="0 0 50 50" fill="none" xmlns="http://www.w3.org/2000/svg">
<g clip-path="url(#clip0_751_3295)">
<path fill-rule="evenodd" clip-rule="evenodd" d="M24.8762 1.04167C18.9707 1.04475 13.259 3.14679 8.76214 6.97192C4.26533 10.7971 1.27672 16.0959 0.330706 21.9208C-0.615311 27.7458 0.542941 33.7171 3.59838 38.767C6.65382 43.8169 11.4072 47.6162 17.0085 49.4854C18.2443 49.7159 18.7098 48.9461 18.7098 48.2917C18.7098 47.6372 18.685 45.7396 18.6768 43.665C11.7566 45.1674 10.2943 40.7302 10.2943 40.7302C9.16566 37.8488 7.53446 37.0914 7.53446 37.0914C5.27716 35.552 7.70336 35.5808 7.70336 35.5808C10.2037 35.7578 11.5177 38.1452 11.5177 38.1452C13.7338 41.9445 17.3381 40.8454 18.7551 40.2033C18.9775 38.5939 19.6242 37.499 20.3368 36.8774C14.8089 36.2517 9.00088 34.1195 9.00088 24.5946C8.96662 22.1244 9.88394 19.7355 11.563 17.9223C11.3076 17.2966 10.4549 14.7692 11.806 11.3363C11.806 11.3363 13.8945 10.6695 18.648 13.8842C22.7252 12.77 27.0271 12.77 31.1043 13.8842C35.8537 10.6695 37.938 11.3363 37.938 11.3363C39.2932 14.761 38.4406 17.2884 38.1852 17.9223C39.8696 19.7358 40.7888 22.1289 40.7514 24.6029C40.7514 34.1484 34.931 36.2517 29.3949 36.8651C30.2846 37.6389 31.0796 39.1495 31.0796 41.4711C31.0796 44.797 31.0508 47.4725 31.0508 48.2917C31.0508 48.9544 31.4997 49.7282 32.7602 49.4854C38.3622 47.6159 43.1161 43.816 46.1714 38.7653C49.2268 33.7145 50.3845 27.7423 49.4374 21.9168C48.4903 16.0913 45.5002 10.7924 41.0019 6.96793C36.5036 3.14345 30.7905 1.04279 24.8844 1.04167H24.8762Z" fill="#107AF2"/>
<path d="M9.4205 36.7333C9.36695 36.8568 9.16923 36.8939 9.00858 36.8074C8.84793 36.721 8.72849 36.5605 8.78616 36.4329C8.84382 36.3053 9.03742 36.2723 9.19807 36.3588C9.35872 36.4452 9.48228 36.6099 9.4205 36.7333Z" fill="#107AF2"/>
<path d="M10.4297 37.8571C10.3444 37.9 10.2468 37.912 10.1536 37.891C10.0605 37.8699 9.97751 37.8172 9.91895 37.7418C9.7583 37.5689 9.72533 37.3302 9.84891 37.2232C9.97248 37.1161 10.1949 37.1655 10.3556 37.3384C10.5162 37.5113 10.5533 37.75 10.4297 37.8571Z" fill="#107AF2"/>
<path d="M11.4101 39.2854C11.2577 39.3924 10.9982 39.2854 10.854 39.0713C10.8142 39.0329 10.7825 38.9869 10.7608 38.936C10.7391 38.8851 10.728 38.8303 10.728 38.775C10.728 38.7196 10.7391 38.6649 10.7608 38.614C10.7825 38.563 10.8142 38.517 10.854 38.4786C11.0064 38.3757 11.266 38.4786 11.4101 38.6885C11.5543 38.8985 11.5584 39.1784 11.4101 39.2854V39.2854Z" fill="#107AF2"/>
<path d="M12.7406 40.6684C12.6047 40.8207 12.3287 40.7796 12.1021 40.5737C11.8756 40.3679 11.822 40.088 11.9579 39.9398C12.0939 39.7917 12.3699 39.8328 12.6047 40.0345C12.8394 40.2362 12.8848 40.5202 12.7406 40.6684V40.6684Z" fill="#107AF2"/>
<path d="M14.6065 41.4752C14.5447 41.6687 14.2646 41.7551 13.9845 41.6728C13.7044 41.5905 13.519 41.3599 13.5726 41.1624C13.6261 40.9648 13.9103 40.8742 14.1946 40.9648C14.4788 41.0553 14.66 41.2735 14.6065 41.4752Z" fill="#107AF2"/>
<path d="M16.6414 41.6151C16.6414 41.8168 16.4108 41.9897 16.1142 41.9938C15.8176 41.9979 15.5746 41.8333 15.5746 41.6316C15.5746 41.4299 15.8052 41.257 16.1018 41.2529C16.3984 41.2488 16.6414 41.4093 16.6414 41.6151Z" fill="#107AF2"/>
<path d="M18.5363 41.2982C18.5733 41.4999 18.3674 41.7098 18.0708 41.7592C17.7742 41.8086 17.5147 41.6892 17.4776 41.4917C17.4406 41.2941 17.6548 41.08 17.9431 41.0265C18.2314 40.973 18.4992 41.0965 18.5363 41.2982Z" fill="#107AF2"/>
</g>
<defs>
<clipPath id="clip0_751_3295">
<rect width="49.7512" height="50" fill="white"/>
</clipPath>
</defs>
</svg>
