
<svg width="30" height="30" viewBox="0 0 30 30" fill="none" xmlns="http://www.w3.org/2000/svg">
<path d="M1.16133 28.6854C0.585654 28.1127 0.585653 27.1843 1.16133 26.6117L26.8727 1.03689C27.4484 0.464268 28.3817 0.464267 28.9574 1.03689C29.5331 1.6095 29.5331 2.5379 28.9574 3.11052L3.24604 28.6854C2.67036 29.258 1.737 29.258 1.16133 28.6854Z" fill="#F60090"/>
<path d="M1.04211 1.31477C1.61778 0.742151 2.55114 0.742151 3.12681 1.31477L28.8382 26.8896C29.4139 27.4622 29.4139 28.3906 28.8382 28.9633C28.2625 29.5359 27.3292 29.5359 26.7535 28.9633L1.04211 3.38841C0.466433 2.81579 0.466432 1.88739 1.04211 1.31477Z" fill="#F60090"/>
</svg>
